# xmcd
#
# Track frame offsets:
#	150
#	20687
#	42280
#	57940
#
# Disc length: 1023 seconds
#
# Revision: 0
# Processed by: cddbd v1.4PL0 Copyright (c) Steve Scherf et al.
# Submitted via: EasyCDDAExtractor 4.6.0.1
#
DISCID=2e03fd04
DTITLE=Shawn Mullins - Lullaby
DYEAR=1999
DGENRE=
TTITLE0=Lullaby
TTITLE1=Lullaby (Acoustic Version)
TTITLE2=Changes
TTITLE3=Lately
EXTD=
EXTT0=
EXTT1=
EXTT2=
EXTT3=
PLAYORDER=
